<svg width="688" height="158" viewBox="0 0 688 158" fill="none" xmlns="http://www.w3.org/2000/svg">
<path d="M149.8 73.9L109.7 34.5C109.1 33.9 108.2 33.5 107.3 33.5C107 33.5 106.7 33.5 106.4 33.6L97.7 36L141.7 79.2L126.3 138.9L135 136.5C136.1 136.2 137 135.3 137.3 134.1L151.4 79.6C151.9 77.6 151.3 75.4 149.8 73.9Z" fill="#F5B335"/>
<path d="M155.8 56.1L115.7 16.7C114.5 15.6 113 14.9 111.4 14.9C110.8 14.9 110.3 15 109.8 15.1L55.6 30.1C54.5 30.4 53.6 31.3 53.3 32.4L51 41.2L110.4 24.7L154.4 67.9L156.7 59.1C157 58.1 156.6 56.9 155.8 56.1Z" fill="#3D4543"/>
<path d="M132.1 80.3L125.6 73.9L110.2 133.6L50.7 150L57.2 156.3C57.8 156.9 58.7 157.3 59.6 157.3C59.9 157.3 60.2 157.3 60.5 157.2L114.7 142.2C116.7 141.6 118.3 140 118.9 138L133 83.4C133.2 82.2 132.9 81.1 132.1 80.3Z" fill="#3D4543"/>
<path d="M16.1 78.9L31.5 19.2L22.7 21.6C21.6 21.9 20.8 22.8 20.5 23.9L6.39999 78.6C5.89999 80.6 6.49999 82.8 7.99999 84.3L48.2 123.8C48.8 124.4 49.6 124.7 50.5 124.7C50.8 124.7 51.1 124.7 51.4 124.6L60.2 122.2L16.1 78.9Z" fill="#3D4543"/>
<path d="M47.4 133.4L3.40001 90.2L1.10001 99.1C0.800014 100.2 1.10001 101.3 1.90001 102.1L42.1 141.6C43.3 142.7 44.8 143.4 46.4 143.4C47 143.4 47.5 143.3 48 143.2L102.2 128.2C103.3 127.9 104.2 127 104.5 125.9L106.8 117.1L47.4 133.4Z" fill="#F5B335"/>
<path d="M100.5 1.8C99.9 1.2 99.1 0.899994 98.2 0.899994C97.9 0.899994 97.6 0.9 97.3 1L43.1 16C41.1 16.6 39.4 18.2 38.9 20.3L24.8 74.9C24.5 76 24.8 77.2 25.7 78L32.2 84.4L47.6 24.7L107 8.2L100.5 1.8Z" fill="#F5B335"/>
<path d="M190.1 111.6V45.8C190.1 45.3 190.5 45 190.9 45H205.5C207.3 45 208.7 46.5 208.7 48.2V69.4C208.7 69.9 209.1 70.2 209.5 70.2H231.8C232.3 70.2 232.6 69.8 232.6 69.4V48.2C232.6 46.4 234 45 235.8 45H250.5C251 45 251.3 45.4 251.3 45.8V111.6C251.3 112.1 250.9 112.4 250.5 112.4H235.8C234.1 112.4 232.7 111 232.7 109.3V87.6C232.7 87.1 232.3 86.8 231.9 86.8H209.6C209.1 86.8 208.8 87.2 208.8 87.6V109.3C208.8 111 207.4 112.4 205.7 112.4H191C190.5 112.4 190.1 112.1 190.1 111.6Z" fill="#F5B335"/>
<path d="M334.9 109.3V47.9C334.9 46.3 336.2 45 337.8 45H352.9C353.3 45 353.6 45.3 353.6 45.7V95.3C353.6 95.7 353.9 96 354.3 96H385.5C385.9 96 386.2 96.3 386.2 96.7V109.3C386.2 111 384.8 112.3 383.2 112.3H338.1C336.4 112.4 334.9 111 334.9 109.3Z" fill="#F5B335"/>
<path d="M450.3 113.6C438.8 113.6 429 110.5 421.1 104.4C419.8 103.4 419.6 101.4 420.7 100.1L428.7 90.6C429 90.3 429.5 90.2 429.8 90.5C436.4 95.6 443.5 98.1 451.1 98.1C456.2 98.1 458.8 96.5 458.8 93.3C458.8 91.9 458 90.7 456.5 89.8C455 88.9 451.9 87.9 447.5 86.9C443.4 85.9 440 85 437.3 84.1C434.6 83.2 432 81.9 429.5 80.3C427 78.7 425.1 76.7 423.9 74.3C422.7 71.9 422.1 68.9 422.1 65.5C422.1 59.1 424.5 54 429.2 50C433.9 46 440.3 44 448.2 44C458.1 44 466.6 46.4 473.6 51.2C474.9 52.1 475.2 53.9 474.3 55.3L467.1 65.5C466.9 65.9 466.4 65.9 466 65.7C459.9 61.6 453.8 59.5 447.8 59.5C445.6 59.5 443.9 59.9 442.8 60.8C441.6 61.6 441.1 62.7 441.1 64.1C441.1 65.6 441.9 66.9 443.5 67.8C445.1 68.7 448.2 69.7 452.8 70.7C461.3 72.6 467.6 75.1 471.7 78.2C475.8 81.3 477.9 85.9 477.9 91.9C477.9 98.7 475.4 104.1 470.5 108C465.2 111.6 458.5 113.6 450.3 113.6Z" fill="#F5B335"/>
<path d="M483.4 109.2V48.8C483.4 46.7 485.1 45 487.2 45H534.8C536.4 45 537.6 46.3 537.6 47.8V60.1C537.6 60.5 537.2 60.9 536.8 60.9H502.6C502.2 60.9 501.8 61.2 501.8 61.7V70.3C501.8 70.7 502.1 71.1 502.6 71.1H533.4C533.8 71.1 534.2 71.4 534.2 71.9V85.1C534.2 85.5 533.9 85.9 533.4 85.9H502.6C502.2 85.9 501.8 86.2 501.8 86.7V95.8C501.8 96.2 502.1 96.6 502.6 96.6H537.2C537.6 96.6 538 97 538 97.4V109.4C538 111.1 536.6 112.5 534.9 112.5H486.5C484.8 112.4 483.4 111 483.4 109.2Z" fill="#3D4543"/>
<path d="M576.6 113.7C566.7 113.7 559 111.1 553.6 106C548.1 100.9 545.4 93.2 545.4 82.9V45.9C545.4 45.4 545.8 45 546.3 45H561.2C563 45 564.4 46.4 564.4 48.2V82.4C564.4 87.2 565.5 90.7 567.7 93.1C569.9 95.5 572.9 96.7 576.8 96.7C580.7 96.7 583.7 95.5 585.9 93.2C588.1 90.9 589.2 87.4 589.2 82.8V48.1C589.2 46.3 590.6 44.9 592.4 44.9H607.3C607.8 44.9 608.2 45.3 608.2 45.8V82.3C608.2 92.8 605.4 100.7 599.9 105.8C594.3 111.1 586.5 113.7 576.6 113.7Z" fill="#3D4543"/>
<path d="M318.9 104.1C311.9 110.9 303.3 114.3 292.9 114.3C282.5 114.3 273.9 110.9 267 104.1C260.1 97.3 256.6 89 256.6 79.2C256.6 69.4 260.1 61.1 267.1 54.3C274.1 47.5 282.7 44.1 293.1 44.1C303.4 44.1 312.1 47.5 319 54.3C325.9 61.1 329.4 69.4 329.4 79.2C329.4 89 325.9 97.3 318.9 104.1ZM293.1 97.4C298.2 97.4 302.3 95.6 305.5 92.1C308.7 88.6 310.3 84.3 310.3 79.2C310.3 74.2 308.7 69.9 305.4 66.3C302.1 62.7 298 60.9 293 60.9C288 60.9 283.9 62.7 280.7 66.2C277.5 69.7 275.9 74 275.9 79.1C275.9 84.1 277.5 88.4 280.8 92C284 95.6 288.1 97.4 293.1 97.4Z" fill="#F5B335"/>
<path d="M615.4 111.9C615.4 112.2 615.6 112.4 615.9 112.4H627.3H630.6C632.3 112.4 633.6 111 633.6 109.4V99.8V91.3L615.3 63.4V111.9H615.4Z" fill="#3D4543"/>
<path d="M686.5 45H670.7C668.6 45 666.7 46.1 665.6 47.9L651.7 70.4C651.5 70.7 651 70.7 650.8 70.4L636.9 47.8C635.8 46.1 634 45 632 45H616C615.7 45 615.5 45.2 615.5 45.5V45.9L634.7 75.3L650.9 100H651.3L667.6 75.1C667.9 74.7 668.6 74.9 668.6 75.4V109.4C668.6 111 669.9 112.3 671.5 112.3H686.6C686.9 112.3 687.1 112.1 687.1 111.8V45.5C687 45.3 686.8 45 686.5 45Z" fill="#3D4543"/>
<path d="M393.7 111.2C393.7 111.9 394.3 112.5 395 112.5H410C411.4 112.5 412.6 111.4 412.6 109.9V77.8L393.8 59.3V111.2H393.7Z" fill="#F5B335"/>
<path d="M410.1 45H394.7C394.2 45 393.7 45.4 393.7 46L412.5 64.4V47.4C412.5 46.1 411.4 45 410.1 45Z" fill="#F5B335"/>
</svg>
